<?xml version="1.0" encoding="UTF-8" standalone="no"?>
<!DOCTYPE svg PUBLIC "-//W3C//DTD SVG 1.1//EN" "http://www.w3.org/Graphics/SVG/1.1/DTD/svg11.dtd">
<svg width="100%" height="100%" viewBox="0 0 1280 1156" version="1.1" xmlns="http://www.w3.org/2000/svg" xmlns:xlink="http://www.w3.org/1999/xlink" xml:space="preserve" xmlns:serif="http://www.serif.com/" style="fill-rule:evenodd;clip-rule:evenodd;stroke-linejoin:round;stroke-miterlimit:2;">
    <g transform="matrix(0.1,0,0,-0.1,0,1156)">
        <path d="M5730,11550C4629,11464 3824,10884 3323,9815C3032,9194 2859,8502 2725,7420C2647,6783 2629,6680 2574,6543C2366,6023 1725,5734 705,5701L495,5695L642,5623C1421,5243 1997,5214 2469,5533C2509,5560 2540,5577 2536,5571C2523,5550 2329,5428 2239,5383C1961,5247 1642,5193 1263,5218C1161,5225 1075,5229 1073,5226C1062,5215 1138,4991 1189,4885C1369,4511 1629,4345 2093,4309C2166,4303 2270,4302 2324,4306L2423,4312L2416,4271C2400,4167 2344,4070 2274,4023C2200,3972 2169,3967 1933,3962C1810,3960 1710,3955 1710,3951C1710,3937 1913,3729 1988,3666C2159,3524 2376,3401 2705,3261C2782,3228 2838,3199 2830,3196C2822,3193 2516,3110 2150,3011C1533,2843 1477,2826 1374,2775C919,2549 601,2185 360,1612C299,1467 266,1376 150,1040C102,900 49,749 31,705C14,661 0,616 0,605C0,582 290,322 422,228C468,195 566,138 640,102L775,35L3347,30C4762,27 7286,27 8957,30C11850,35 11997,36 12045,53C12186,104 12312,181 12535,350C12612,408 12703,475 12738,499C12782,528 12800,547 12800,562C12800,609 12343,1563 12204,1807C12117,1959 11970,2182 11884,2290C11791,2408 11581,2613 11483,2683C11394,2746 11228,2836 11140,2869C11110,2880 10694,2987 10215,3105C9737,3224 9337,3323 9327,3326C9312,3331 9327,3351 9407,3433C10235,4288 10444,5772 10034,7885C9909,8531 9765,8994 9550,9446C9242,10093 8813,10604 8283,10953C7830,11252 7384,11415 6744,11515C6529,11549 5967,11568 5730,11550Z" style="fill-rule:nonzero;stroke:black;stroke-width:10px;"/>
    </g>
</svg>
